<?xml version="1.0" standalone="no"?>
<!DOCTYPE svg PUBLIC "-//W3C//DTD SVG 20010904//EN"
 "http://www.w3.org/TR/2001/REC-SVG-20010904/DTD/svg10.dtd">
<svg version="1.0" xmlns="http://www.w3.org/2000/svg"
 width="108.000000pt" height="135.000000pt" viewBox="0 0 108.000000 135.000000"
 preserveAspectRatio="xMidYMid meet">

<g transform="translate(0.000000,135.000000) scale(0.100000,-0.100000)"
fill="#FFFFFF" stroke="none">
<path d="M691 1271 c-57 -86 -52 -83 -180 -102 l-85 -13 -61 67 c-78 86 -100
88 -110 15 -18 -150 -14 -140 -46 -133 -59 13 -180 9 -196 -7 -13 -14 -12 -20
10 -55 30 -47 77 -89 123 -108 38 -16 40 -22 19 -91 -30 -104 -47 -235 -40
-318 17 -190 83 -305 210 -366 50 -24 69 -39 87 -72 45 -82 144 -108 262 -68
72 24 129 77 141 130 4 18 14 30 30 34 35 9 132 114 163 176 25 51 27 64 27
175 -1 102 -5 135 -30 220 -16 55 -28 117 -28 138 1 30 -4 41 -28 58 -39 27
-39 63 0 83 34 18 82 76 107 130 l19 38 -25 20 c-21 17 -35 19 -95 15 -38 -3
-84 -9 -101 -12 -30 -7 -31 -6 -43 42 -14 54 -35 83 -61 83 -11 0 -38 -31 -69
-79z m92 -45 c11 -45 3 -56 -40 -49 -39 6 -41 16 -10 60 27 40 39 38 50 -11z
m-436 -48 c18 -18 33 -37 33 -44 0 -11 -59 -54 -74 -54 -3 0 -6 29 -6 65 0 36
3 65 7 65 4 0 22 -14 40 -32z m653 -7 c0 -26 -71 -97 -114 -112 -41 -15 -46
-36 -18 -77 37 -53 35 -60 -21 -96 -73 -47 -158 -77 -181 -64 -21 12 -46 4
-46 -16 0 -21 32 -57 55 -60 11 -1 26 -15 33 -29 17 -35 62 -38 62 -5 0 12 -7
29 -15 38 -14 16 -13 18 17 31 18 7 59 29 91 47 32 19 59 33 61 31 2 -2 18
-49 36 -104 29 -86 33 -115 34 -207 1 -69 -3 -111 -11 -118 -8 -9 -29 -3 -85
24 -118 58 -238 71 -386 40 -99 -20 -168 -53 -231 -110 -28 -25 -55 -43 -60
-40 -14 9 -41 138 -41 199 0 59 8 71 55 83 40 10 93 44 135 88 32 34 38 36 76
30 55 -8 65 15 23 54 l-30 28 22 49 c15 33 23 77 27 137 4 77 8 90 26 101 14
8 74 12 178 12 152 0 158 1 173 22 17 24 60 41 108 42 20 1 27 -4 27 -18z
m-238 -722 c59 -13 157 -59 177 -83 11 -14 10 -21 -9 -49 -22 -33 -69 -70
-100 -81 -10 -3 -25 9 -43 35 -22 32 -33 40 -54 37 -38 -4 -39 -23 -3 -59 38
-38 34 -54 -17 -68 -48 -14 -253 -14 -253 -1 0 5 14 26 32 46 l32 36 -23 19
c-36 30 -46 25 -81 -43 -15 -28 -32 -48 -42 -48 -22 0 -102 62 -106 83 -5 26
75 104 135 133 104 49 245 66 355 43z m-24 -331 c-3 -7 -24 -24 -49 -38 -79
-45 -219 -28 -219 26 0 10 28 14 113 17 61 1 123 4 135 5 15 1 22 -3 20 -10z"/>
<path d="M544 778 c9 -48 46 -62 46 -18 0 32 -11 50 -32 50 -18 0 -20 -4 -14
-32z"/>
<path d="M483 713 c-19 -7 -16 -50 4 -57 9 -4 23 -1 30 7 12 12 11 17 -4 34
-10 12 -24 19 -30 16z"/>
</g>
</svg>
